<svg width="56" height="57" viewBox="0 0 56 57" fill="none" xmlns="http://www.w3.org/2000/svg">
<path d="M17.9101 44.6283C17.5083 43.141 17.1262 41.7234 16.7426 40.3057C16.1058 37.9542 15.4797 35.6056 14.8217 33.2556C14.711 32.8568 14.7535 32.6612 15.1492 32.4732C16.5986 31.7849 18.0299 31.0495 19.4687 30.3506C21.1258 29.5488 22.9451 29.1389 24.7859 29.1528C28.4369 29.1437 32.0873 29.1437 35.7372 29.1528C37.405 29.1528 38.6513 30.2823 38.7059 31.8031C38.7635 33.389 37.6233 34.5822 35.9419 34.7141C34.7547 34.8081 33.5676 34.9097 32.3819 35.0295C32.1544 35.0433 31.9319 35.1023 31.7274 35.2031C31.523 35.3039 31.3406 35.4444 31.1911 35.6165C31.0416 35.7886 30.928 35.9888 30.8567 36.2053C30.7855 36.4219 30.7582 36.6504 30.7763 36.8777C30.8309 37.939 31.5753 38.6971 32.6094 38.6319C34.0603 38.5424 35.5234 38.4803 36.9547 38.2331C39.605 37.7874 41.3152 36.1878 42.0961 33.627C42.1326 33.4488 42.2218 33.2856 42.3521 33.1586C42.4824 33.0315 42.6477 32.9465 42.8268 32.9144C44.9813 32.3474 47.1252 31.7379 49.2797 31.1693C50.8428 30.7569 52.2468 31.6924 52.4909 33.2692C52.6425 34.2805 52.1134 35.2948 51.1051 35.8467C48.1021 37.4791 45.096 39.108 42.087 40.7333C40.1265 41.7946 38.1616 42.8468 36.2072 43.9173C34.2999 44.9619 32.3198 45.1545 30.2351 44.545C27.8425 43.8475 25.4424 43.1764 23.0347 42.5315C22.7153 42.4605 22.3816 42.4939 22.0826 42.627C20.7105 43.2441 19.3611 43.9188 17.9101 44.6283Z" fill="#00A551"/>
<path d="M40.8979 5.08071C40.8727 5.05159 40.8484 5.02228 40.8247 4.99358C40.8177 4.98514 40.8108 4.97677 40.804 4.96847C40.7707 4.92802 40.7388 4.88922 40.7059 4.85163C40.6267 4.76086 40.5508 4.68736 40.466 4.63869L40.4642 4.63767L40.4642 4.63765C39.9293 4.31913 39.3889 4.00959 38.8475 3.69945L38.8469 3.6991C38.3061 3.38934 37.7643 3.07897 37.2277 2.75941C37.0269 2.64233 36.877 2.6096 36.7557 2.63354C36.6359 2.65717 36.5142 2.74198 36.383 2.92853C35.9822 3.52894 35.5502 4.10796 35.0888 4.6632L35.0815 4.6719L35.0812 4.67154C34.846 4.90763 34.5319 5.0486 34.1992 5.06745L34.1967 5.06758L34.1967 5.06756C33.102 5.10811 32.0073 5.10811 30.9125 5.06756L30.911 5.0675V5.0675C30.5788 5.05114 30.2646 4.91162 30.0297 4.67615L30.0216 4.66803L30.022 4.6677C29.5605 4.11179 29.1281 3.53242 28.7265 2.93188C28.5953 2.74717 28.474 2.6592 28.3539 2.63352C28.2337 2.60781 28.0843 2.63804 27.8823 2.75897L27.8822 2.75901C26.8107 3.39951 25.7256 4.02322 24.6377 4.63016C24.4392 4.74231 24.3344 4.85455 24.2929 4.97255C24.2519 5.08891 24.2628 5.23928 24.3609 5.45093C24.4966 5.74193 24.6231 6.03726 24.7486 6.33026C24.7607 6.35849 24.7728 6.3867 24.7849 6.41488C24.9227 6.73637 25.0604 7.05468 25.2107 7.3657L25.2109 7.36628C25.3122 7.57869 25.3492 7.77139 25.3222 7.96516C25.2955 8.15587 25.2086 8.3347 25.086 8.52241C24.5246 9.38263 24.0082 10.281 23.5338 11.1951C23.4355 11.3861 23.3269 11.5457 23.1821 11.6623C23.0348 11.7809 22.8589 11.8478 22.6385 11.8686L22.6383 11.8686C22.3055 11.8997 21.9732 11.9376 21.6394 11.9758C21.6159 11.9784 21.5925 11.9811 21.569 11.9838C21.212 12.0245 20.8534 12.0649 20.4937 12.0961L20.4936 12.0961C20.2748 12.115 20.1505 12.1792 20.0771 12.2681C20.0016 12.3597 19.9606 12.5008 19.9605 12.7154C19.9746 13.9664 19.9746 15.2159 19.9605 16.4639L19.9605 16.4641C19.9576 16.6909 19.9985 16.8411 20.0775 16.9385C20.154 17.0328 20.2853 17.1005 20.5184 17.1187L20.5184 17.1187C20.8698 17.1462 21.2196 17.1863 21.567 17.2266L21.6154 17.2323C21.9471 17.2708 22.2767 17.3091 22.607 17.3371L22.6075 17.3372C22.8396 17.3579 23.0243 17.4263 23.1787 17.5486C23.3307 17.669 23.4443 17.8344 23.5473 18.0332C24.0316 18.9642 24.5753 19.8644 25.1371 20.7532L25.1371 20.7533C25.2384 20.9139 25.3125 21.0705 25.337 21.2376C25.3619 21.4076 25.3338 21.5771 25.2496 21.7606L25.2494 21.7611C25.0746 22.137 24.9111 22.5124 24.7471 22.8889C24.6182 23.1849 24.489 23.4815 24.3538 23.7796L24.3536 23.7801C24.2631 23.9771 24.2523 24.1204 24.2904 24.2324C24.3289 24.3454 24.4267 24.4541 24.6141 24.5609L24.5523 24.6695M40.8979 5.08071L40.5084 24.7059C39.4198 25.3124 38.3388 25.9345 37.2654 26.5723L37.2017 26.4647C37.2016 26.4648 37.2016 26.4648 37.2015 26.4649C37.0127 26.5765 36.8703 26.6056 36.755 26.5818C36.6402 26.5581 36.5232 26.476 36.3986 26.3L36.3985 26.2998C36.2084 26.032 36.0126 25.7681 35.8177 25.5053C35.7987 25.4797 35.7797 25.454 35.7607 25.4284C35.5467 25.1397 35.3343 24.8519 35.1301 24.5587L35.13 24.5586C35.0091 24.3852 34.8715 24.2676 34.7053 24.1973C34.5412 24.128 34.3595 24.1092 34.1578 24.1155L34.1575 24.1155C33.0884 24.1518 32.0163 24.1518 30.9472 24.1155L30.9469 24.1155C30.745 24.1092 30.5635 24.1284 30.3998 24.1983C30.234 24.269 30.0969 24.387 29.9762 24.5601L29.9762 24.5602C29.7386 24.9012 29.4941 25.2314 29.2484 25.5632C29.0682 25.8066 28.8873 26.0509 28.7081 26.3009L28.7078 26.3013C28.5832 26.4765 28.4663 26.5583 28.3515 26.5818C28.2362 26.6053 28.0937 26.5759 27.9048 26.4634L27.9046 26.4633C26.8151 25.8168 25.7165 25.1857 24.6139 24.5608L24.5523 24.6695M40.8979 5.08071C40.8396 5.22175 40.7869 5.35958 40.7369 5.49051C40.706 5.57155 40.676 5.64994 40.6464 5.72483C40.5591 5.94528 40.4715 6.14273 40.3589 6.32065M40.8979 5.08071L41.5749 11.192C41.5175 11.0602 41.4633 10.9285 41.4094 10.7973C41.3255 10.5932 41.2421 10.3904 41.1479 10.1905C40.9955 9.86671 40.8238 9.57174 40.6001 9.33803L40.6 9.33795C40.1318 8.84785 39.8944 8.36152 39.8681 7.85447C39.842 7.34979 40.0263 6.84548 40.3589 6.32065M24.5523 24.6695C25.6545 25.2942 26.7523 25.9249 27.8409 26.5708L22.5964 17.4617C23.0209 17.4996 23.2378 17.7073 23.4364 18.0909C23.9231 19.0263 24.4689 19.93 25.0314 20.82C25.2255 21.1278 25.2876 21.3779 25.136 21.7085C24.9616 22.0837 24.7962 22.4632 24.6311 22.8422C24.502 23.1385 24.373 23.4346 24.24 23.728C24.0444 24.154 24.1505 24.4406 24.5523 24.6695ZM40.3589 6.32065L40.4635 6.38694L40.3589 6.3207C40.3589 6.32068 40.3589 6.32067 40.3589 6.32065ZM32.5516 9.93472C33.1654 9.93452 33.7733 10.0553 34.3405 10.29C34.9077 10.5248 35.4231 10.869 35.8572 11.303C36.2914 11.737 36.6358 12.2523 36.8707 12.8194C37.1057 13.3865 37.2266 13.9944 37.2266 14.6082V14.6085C37.2244 15.5298 36.9494 16.4298 36.4362 17.195C35.923 17.9601 35.1947 18.5561 34.3431 18.9076C33.4915 19.2592 32.5549 19.3506 31.6514 19.1704C30.7479 18.9901 29.918 18.5462 29.2666 17.8948C28.6151 17.2433 28.1712 16.4135 27.991 15.51C27.8107 14.6065 27.9021 13.6698 28.2537 12.8182C28.6053 11.9667 29.2012 11.2383 29.9663 10.7251C30.7311 10.2121 31.6307 9.93713 32.5515 9.93472H32.5516ZM32.5516 9.93472V10.0583V10.0597C32.5516 10.0597 32.5516 10.0597 32.5516 10.0597L32.5516 9.93472ZM44.5859 17.1233L44.5961 17.2479L44.6173 12.0992C44.8374 12.118 44.9623 12.1829 45.0354 12.2723C45.1108 12.3644 45.1509 12.5062 45.1488 12.7209L45.1488 12.721C45.1377 13.9698 45.1377 15.2187 45.1488 16.4675C45.1487 16.6977 45.1065 16.8475 45.0271 16.9441C44.9502 17.0378 44.8191 17.1043 44.586 17.1233C44.586 17.1233 44.586 17.1233 44.5859 17.1233ZM20.5086 17.2433C20.0038 17.2039 19.8294 16.9401 19.8355 16.4625C19.8496 15.2152 19.8496 13.9664 19.8355 12.7161C19.8355 12.2612 20.0068 12.0125 20.4829 11.9716L20.5086 17.2433Z" fill="#F4D50C" stroke="#00A551" stroke-width="0.25"/>
<path d="M11.0061 33.546L11.006 33.5459C10.8818 33.0884 10.7182 32.8526 10.514 32.7595C10.3085 32.6657 10.0153 32.695 9.57513 32.8919C9.05582 33.1247 8.53677 33.3586 8.0176 33.5926C6.6948 34.1888 5.37115 34.7854 4.04004 35.3638C3.85603 35.4441 3.75511 35.526 3.69615 35.6221C3.63633 35.7197 3.60865 35.8496 3.60864 36.0496C3.61926 41.6292 3.61927 47.2088 3.61927 52.7882V54.334C3.65842 54.321 3.69717 54.3067 3.73543 54.2911C7.27126 52.4232 10.8071 50.5497 14.3429 48.6706L14.343 48.6706C14.6219 48.5228 14.7659 48.3804 14.8297 48.2132C14.8947 48.0427 14.8869 47.8192 14.7965 47.4841L11.0061 33.546ZM11.0061 33.546L14.7964 47.4839L11.0061 33.546Z" fill="#F4D50C" stroke="#00A551" stroke-width="0.25"/>
<path d="M32.5517 10.0596C33.4489 10.059 34.3261 10.3244 35.0726 10.8222C35.819 11.32 36.4011 12.0278 36.7453 12.8564C37.0895 13.6849 37.1804 14.5969 37.0066 15.477C36.8327 16.3572 36.4018 17.1661 35.7683 17.8014C35.1349 18.4368 34.3273 18.8701 33.4476 19.0467C32.568 19.2232 31.6558 19.135 30.8262 18.7933C29.9967 18.4515 29.287 17.8716 28.787 17.1266C28.287 16.3817 28.0189 15.5053 28.0168 14.6081C28.0168 13.4041 28.4942 12.2493 29.3442 11.3966C30.1943 10.544 31.3477 10.0632 32.5517 10.0596V10.0596Z" fill="#00A551"/>
</svg>
